<svg width="486" height="292" viewBox="0 0 486 292" fill="none" xmlns="http://www.w3.org/2000/svg">
    <g opacity="0.4" clip-path="url(#clip0_0_758)">
        <path d="M461.833 -1.9119C461.833 160.099 330.548 291.694 168.227 291.694C-7.44066 291.694 -146.485 131.856 -122.276 -42.2595C-102.413 -185.649 23.5959 -295.208 168.227 -295.208C330.238 -295.518 461.833 -164.233 461.833 -1.9119Z" fill="url(#paint0_radial_0_758)"/>
        <path d="M106.464 227.139C81.9449 216.586 66.737 197.033 68.9095 181.204C67.6681 182.446 66.737 183.998 66.1162 185.55C58.9778 201.999 75.1169 224.966 102.119 236.76C129.121 248.554 156.743 244.519 163.882 227.759C164.502 226.208 165.123 224.345 165.123 222.794C155.502 235.519 130.672 237.691 106.464 227.139Z" fill="#171B34"/>
        <path d="M127.879 176.859C103.36 166.307 78.5307 168.479 68.599 181.204C66.1161 197.033 81.6344 216.586 106.153 227.139C130.672 237.691 155.501 235.519 165.433 222.794C167.916 206.965 152.398 187.412 127.879 176.859Z" fill="#0B0D19"/>
        <path d="M335.822 156.996C319.062 179.653 293.923 189.584 276.232 181.825C277.473 183.377 279.025 184.929 280.887 186.17C298.268 199.206 327.442 189.274 346.064 164.445C364.686 139.615 365.307 108.579 347.926 95.8537C346.064 94.6123 344.202 93.6812 342.34 92.7501C354.754 107.337 352.582 134.65 335.822 156.996Z" fill="#171B34"/>
        <path d="M335.923 157.165C354.176 132.503 357.022 103.665 342.279 92.7536C327.537 81.8426 300.789 92.9905 282.536 117.653C264.283 142.316 261.437 171.154 276.179 182.065C290.922 192.976 317.67 181.828 335.923 157.165Z" fill="#0B0D19"/>
        <path d="M403.174 -18.0504C405.036 1.50266 396.656 18.5728 383.621 22.9179C385.172 23.2283 386.724 23.2283 387.966 22.9179C403.174 21.3661 413.726 2.74414 411.864 -18.9815C409.691 -40.7071 395.725 -57.1565 380.517 -55.6047C378.965 -55.6047 377.724 -54.9839 376.172 -54.6736C389.828 -52.8114 401.311 -37.6035 403.174 -18.0504Z" fill="#171B34"/>
        <path d="M356.929 -13.7055C358.791 5.84754 370.275 21.0555 383.62 22.9177C396.345 18.5726 405.036 1.50241 403.174 -18.0507C401.311 -37.6037 389.828 -52.8116 376.482 -54.6738C363.447 -50.3287 355.067 -33.2586 356.929 -13.7055Z" fill="#0B0D19"/>
        <path d="M294.546 -5.01546C295.787 -1.60143 295.787 2.12294 294.856 5.2266C296.718 1.50221 297.339 -3.15327 295.787 -7.4984C292.683 -16.1886 283.372 -20.8441 274.682 -17.7405C269.406 -15.8783 265.681 -11.8435 264.13 -6.87765C265.992 -10.602 269.406 -13.7057 273.751 -15.2575C282.131 -18.3612 291.752 -13.7057 294.546 -5.01546Z" fill="#171B34"/>
        <path d="M285.233 13.6066C289.579 12.0548 292.993 8.95114 294.855 5.22675C295.786 1.81272 295.786 -1.60129 294.544 -5.01532C291.441 -13.7056 282.13 -18.3611 273.44 -15.2574C269.094 -13.7056 265.68 -10.6019 263.818 -6.87751C262.887 -3.46348 262.887 -0.049469 264.129 3.36456C267.232 12.0548 276.543 16.7103 285.233 13.6066Z" fill="#0B0D19"/>
        <path d="M70.7709 -74.8477C81.9441 -81.055 94.3588 -83.2276 106.463 -81.6758C91.8758 -86.0209 75.7368 -84.7794 61.46 -76.7099C33.2167 -60.8813 23.285 -25.4995 38.8033 2.74377C48.1143 19.8139 64.874 30.056 82.5649 32.2285C68.288 28.1938 55.8734 18.5724 48.1143 4.60596C32.596 -23.6373 42.5276 -59.3294 70.7709 -74.8477Z" fill="#171B34"/>
        <path d="M140.914 -54.0536C133.155 -68.02 120.43 -77.6414 106.463 -81.6762C94.6696 -83.228 82.2549 -81.0554 70.7714 -74.8481C42.5281 -59.0194 32.5964 -23.6377 48.1147 4.60561C55.8738 18.5721 68.5988 28.1934 82.5653 32.2282C94.3592 33.78 106.774 31.6074 118.257 25.4001C146.501 9.57145 156.743 -26.1206 140.914 -54.0536Z" fill="#0B0D19"/>
        <path d="M462.762 -77.6409C459.348 -80.7446 455.003 -83.8482 450.658 -81.986C448.175 -81.0549 446.623 -78.8824 445.071 -76.3994C441.347 -70.1921 439.174 -63.0537 437.312 -55.9153C427.38 -17.7402 427.07 22.6073 436.071 60.7823C437.622 66.9897 439.485 73.5074 442.588 79.0939C443.209 80.025 443.83 81.2665 445.071 81.2665C446.002 81.5769 446.933 80.9561 447.865 80.3354C452.83 77.2317 457.486 74.1281 462.452 71.0244C464.624 69.783 466.486 68.2311 467.728 66.0586C469.28 63.2653 468.969 60.1616 468.659 57.058C464.935 18.8829 466.176 -19.9128 472.694 -57.7775C473.315 -61.1915 475.797 -66.7781 473.004 -69.5714C471.763 -70.8128 469.59 -71.4336 468.038 -72.675C466.176 -74.2269 464.314 -76.0891 462.762 -77.6409Z" fill="#171B34"/>
        <path d="M463.074 65.7484C464.005 67.6106 465.246 68.852 466.488 68.852C473.316 69.1624 480.454 38.1258 482.006 -0.669945C483.558 -39.1553 479.213 -70.8127 472.385 -71.123C471.143 -71.123 469.902 -70.1919 468.66 -68.3297C473.626 -59.6395 476.109 -32.6377 474.868 -0.980331C473.626 30.9874 468.66 57.3685 463.074 65.7484Z" fill="#171B34"/>
        <path d="M463.073 65.7485C468.659 57.3686 473.625 30.6771 474.867 -0.980232C476.108 -32.6376 473.625 -59.6394 468.659 -68.3297C463.073 -59.9498 458.107 -33.2583 456.865 -1.60096C455.624 30.0564 458.417 57.0582 463.073 65.7485Z" fill="#0B0D19"/>
        <path d="M31.9744 254.451C36.6299 253.83 41.5958 251.968 42.8372 247.623C43.458 245.14 42.8373 242.346 41.9062 239.863C39.1129 233.035 35.0781 227.138 30.4226 221.241C6.52441 190.205 -25.1329 164.755 -61.1354 148.616C-67.0323 145.822 -73.2396 143.34 -79.447 142.719C-80.6884 142.719 -81.9299 142.408 -82.861 143.34C-83.4817 143.96 -83.7921 145.202 -83.7921 146.133C-84.4128 151.719 -84.7232 157.616 -85.3439 163.203C-85.6543 165.686 -85.6543 168.169 -84.7232 170.341C-83.4817 173.135 -80.6884 174.997 -78.2055 176.549C-45.6171 197.033 -15.8219 221.862 9.93847 250.106C12.4214 252.588 15.2147 258.175 19.2495 257.554C21.1116 257.244 22.9738 256.002 24.836 255.382C27.319 255.071 29.8019 254.761 31.9744 254.451Z" fill="#171B34"/>
        <path d="M-81.6205 166.927C-83.7931 166.617 -85.3449 166.927 -86.276 167.858C-90.9315 173.134 -70.4474 197.653 -40.9626 222.793C-11.4778 247.933 16.1447 263.761 20.4899 258.485C21.421 257.554 21.421 256.002 20.4899 253.83C10.5582 252.278 -12.4089 237.691 -36.6175 217.206C-60.5156 196.412 -78.5169 176.238 -81.6205 166.927Z" fill="#171B34"/>
        <path d="M20.6722 253.403C23.8864 249.61 3.59398 227.129 -24.6521 203.189C-52.8982 179.248 -78.4018 162.915 -81.616 166.708C-84.8302 170.5 -64.5378 192.982 -36.2917 216.922C-8.04561 240.862 17.458 257.195 20.6722 253.403Z" fill="#0B0D19"/>
        <path d="M405.655 177.17C405.655 174.687 405.035 171.893 402.552 170.962C401.31 170.342 399.758 170.652 398.517 170.962C394.793 171.893 391.379 173.756 387.965 175.928C369.963 186.791 354.755 201.999 344.203 220C342.341 223.104 340.789 226.207 339.858 229.311C339.858 229.932 339.547 230.553 339.858 231.173C340.168 231.484 340.789 231.794 341.41 231.794C344.513 232.415 347.307 233.035 350.41 233.656C351.652 233.967 352.893 234.277 354.135 233.656C355.686 233.035 356.928 231.794 357.859 230.553C370.584 214.414 385.482 200.137 401.931 188.032C403.483 186.791 406.586 185.86 406.276 183.687C406.276 182.756 405.655 181.515 405.345 180.584C405.655 179.653 405.655 178.411 405.655 177.17Z" fill="#171B34"/>
        <path d="M352.581 232.105C352.271 233.346 352.271 233.967 352.892 234.587C355.375 237.381 369.652 228.07 384.549 213.793C399.447 199.516 409.689 185.86 406.896 183.377C406.585 182.756 405.654 182.756 404.413 183.067C402.861 188.343 394.17 199.516 381.756 211C369.652 222.794 357.858 231.173 352.581 232.105Z" fill="#171B34"/>
        <path d="M352.583 232.105C357.859 230.863 369.653 222.483 381.757 211C394.172 199.516 402.862 188.033 404.414 183.067C399.138 184.308 387.344 192.688 375.239 204.172C363.135 215.655 354.135 227.139 352.583 232.105Z" fill="#0B0D19"/>
    </g>
    <defs>
        <radialGradient id="paint0_radial_0_758" cx="0" cy="0" r="1" gradientUnits="userSpaceOnUse" gradientTransform="translate(276.343 -122.733) rotate(128.026) scale(409.279 409.246)">
            <stop stop-color="#1E2140"/>
            <stop offset="1" stop-color="#131525"/>
        </radialGradient>
        <clipPath id="clip0_0_758">
            <rect width="611.421" height="589.695" fill="white" transform="translate(-126 -298)"/>
        </clipPath>
    </defs>
</svg>
