<svg width="167" height="229" viewBox="0 0 167 229" fill="none" xmlns="http://www.w3.org/2000/svg">
    <path fill-rule="evenodd" clip-rule="evenodd" d="M0 40.2323L5.42074 74.963C5.42074 74.963 23.8513 81.1372 26.7297 87.1217C29.6081 93.1062 41.3657 201.017 41.3657 201.017L54.099 210.964C54.099 210.964 62.0729 230.717 68.5181 228.484C74.9634 226.25 81.6255 199.445 81.6255 199.445C81.6255 199.445 82.6446 198.263 84.1895 196.192C85.7344 194.122 87.9352 191.01 90.2499 187.232C93.1337 182.57 96.3482 164.411 98.381 151.314C99.6115 143.335 100.408 137.22 100.408 137.22L132.765 130.433L136.776 122.459L163.668 106.197C171.469 66.2573 163.126 15.9041 163.126 15.9041C154.334 9.00349 113.722 -0.564093 100.294 0.644731C87.6587 1.77224 61.5308 10.543 58.338 11.6434L58.0073 11.741L53.5298 37.1588C32.0582 30.8816 0 40.2323 0 40.2323Z" fill="url(#paint0_linear_0_822)"/>
    <path fill-rule="evenodd" clip-rule="evenodd" d="M0 40.2322L5.42074 74.9628C5.42074 74.9628 23.8513 81.137 26.7297 87.1215C29.6081 93.106 41.3657 201.017 41.3657 201.017L54.099 210.964C54.099 210.964 62.0729 230.717 68.5181 228.483C74.9634 226.25 81.6255 199.445 81.6255 199.445C81.6255 199.445 82.6446 198.263 84.1895 196.192L77.6033 193.075L65.6777 203.667L60.1268 189.232L56.9882 108.886L74.5081 114.014L94.9876 137.865L98.3701 151.325C99.6007 143.345 100.397 137.231 100.397 137.231L132.754 130.444L136.765 122.47L163.657 106.208L145.433 109.298L142.842 90.5908L136.44 118.405L128.097 118.73L109.06 113.64C109.06 113.64 103.097 101.367 101.384 94.8515C99.6711 88.3358 95.5188 45.8589 95.5188 45.8589L94.0064 7.27953L83.5444 4.62878L58.3488 11.6161L58.0182 11.7137L53.5406 37.1315C32.0582 30.8814 0 40.2322 0 40.2322Z" fill="#0E1020"/>
    <defs>
        <linearGradient id="paint0_linear_0_822" x1="45.8427" y1="193.684" x2="158.089" y2="56.9113" gradientUnits="userSpaceOnUse">
            <stop offset="0.01" stop-color="#0E1020"/>
            <stop offset="1" stop-color="#1F2342"/>
        </linearGradient>
    </defs>
</svg>
