<svg width="285" height="171" viewBox="0 0 285 171" fill="none" xmlns="http://www.w3.org/2000/svg">
    <path fill-rule="evenodd" clip-rule="evenodd" d="M5.19511 17.9105C5.19511 17.9105 -0.502257 46.0474 0.145 52.7571C0.792258 59.4667 13.6659 74.3988 13.6659 74.3988C13.6659 74.3988 27.2395 103.619 31.5483 117.908C35.8571 132.197 50.5408 150.373 50.5408 150.373C50.5408 150.373 138.455 164.01 162.479 164.01C186.502 164.01 198.605 152.755 198.605 152.755C198.605 152.755 232.507 93.8843 235.483 90.9603C238.46 88.0364 255.345 81.9815 255.345 81.9815C255.345 81.9815 282.816 32.3722 284.976 19.2991L208.585 22.4564L5.19511 17.9105Z" fill="url(#paint0_linear_0_825)"/>
    <path fill-rule="evenodd" clip-rule="evenodd" d="M5.19153 17.9101L41.2987 13.3943L62.2819 9.82688C62.2819 9.82688 161.628 10.0941 190.179 11.7423C190.179 11.7423 213.989 2.11622 220.484 1.90925C226.979 1.70228 239.476 13.3943 239.476 13.3943L284.98 19.325C284.98 19.325 264.204 26.5578 248.188 26.2529L263.455 31.3933C263.455 31.3933 259.876 34.4039 253.818 36.229C247.759 38.0541 202.229 39.4088 180.625 39.168C159.021 38.9271 149.545 31.3933 149.545 31.3933L159.446 27.6302L147.78 26.2454C147.78 26.2454 112.437 32.4282 98.9348 32.8647C85.4327 33.3013 68.1185 29.9972 68.1185 29.9972L66.8203 25.3949C66.8203 25.3949 30.1523 23.3327 5.19153 17.9101Z" fill="url(#paint1_radial_0_825)"/>
    <path fill-rule="evenodd" clip-rule="evenodd" d="M58.2601 24.808V44.4403L38.3156 47.8271C38.3156 47.8271 37.4387 48.2034 35.2486 53.8481C33.0585 59.4928 22.898 73.4164 22.898 73.4164L13.6595 74.4249L21.0541 90.9826C21.0541 90.9826 31.7225 91.0917 35.9561 93.7222C40.1896 96.3526 49.5974 104.218 49.5974 104.218L55.2421 119.676C55.2421 119.676 60.8868 91.0767 61.2631 86.561C61.6394 82.0452 67.1185 62.6425 66.2605 59.3686C65.4025 56.0947 66.5992 43.3076 66.5992 43.3076L68.1044 29.9861C68.1044 29.9861 96.9902 33.9035 99.997 35.0325C103.004 36.1614 104.321 48.2034 104.321 48.2034L114.165 70.8988L103.139 104.014L107.414 132.121L108.761 153.259L124.45 170.05H136.868C136.868 170.05 147.029 115.134 147.781 111.751C148.534 108.368 145.102 100.462 145.102 100.462L150.043 65.9579L149.557 31.3597L159.458 27.5965L147.792 26.2117C147.792 26.2117 111.091 31.7059 105.017 32.2666C98.9433 32.8273 68.0555 27.1111 68.0555 27.1111L86.5776 22.5953L58.2601 24.808Z" fill="#0C0E1C"/>
    <path fill-rule="evenodd" clip-rule="evenodd" d="M216.681 39.183L241.427 43.3225L237.484 52.7792L226.755 78.6657L213.814 90.9712L199.295 96.3449L188.006 104.206H197.79L197.038 114.686L191.792 139.651L191.532 157.42L198.167 156.513C198.167 156.513 224.651 108.541 235.485 90.9712C235.485 90.9712 253.481 85.4093 255.347 81.9923C257.214 78.5754 282.656 31.0358 284.978 19.3099L248.205 26.2379L263.472 31.3783C263.472 31.3783 252.724 36.165 245.574 37.2939C238.424 38.4229 216.681 39.183 216.681 39.183Z" fill="#0C0E1C"/>
    <path fill-rule="evenodd" clip-rule="evenodd" d="M190.182 11.7273L182.189 15.6523C182.189 15.6523 188.022 16.9656 191.405 17.9102C194.788 18.8547 213.37 17.3457 216.682 16.4049C219.993 15.4642 232.212 11.7161 232.212 11.7161L232.867 7.88898C232.867 7.88898 223.745 -0.273246 220.99 0.170803C218.236 0.614852 195.006 9.34905 190.182 11.7273Z" fill="url(#paint2_radial_0_825)"/>
    <path fill-rule="evenodd" clip-rule="evenodd" d="M240.609 13.5299L232.864 17.9101L220.74 18.2074H194.91C194.91 18.2074 214.779 16.5103 217.759 15.8593C220.74 15.2082 232.21 11.7198 232.21 11.7198L232.864 7.89271L240.609 13.5299Z" fill="#0E1020"/>
    <path fill-rule="evenodd" clip-rule="evenodd" d="M58.2635 44.4401L66.6026 63.997L68.0364 27.1372L86.5585 22.6252L58.2635 24.8078V44.4401Z" fill="#0E1020"/>
    <path fill-rule="evenodd" clip-rule="evenodd" d="M248.209 26.2382L263.476 31.3786L256.883 79.1703C256.883 79.1703 277.411 40.0338 285.001 19.2915L248.209 26.2382Z" fill="#0E1020"/>
    <path fill-rule="evenodd" clip-rule="evenodd" d="M104.996 32.2928L124.455 51.1724L136.489 63.9971L138.939 74.9667L149.728 68.0914L149.547 31.3784L159.448 27.6228L147.771 26.2379L104.996 32.2928Z" fill="#0E1020"/>
    <defs>
        <linearGradient id="paint0_linear_0_825" x1="78.296" y1="141.61" x2="119.547" y2="7.72632" gradientUnits="userSpaceOnUse">
            <stop offset="0.01" stop-color="#0E1020"/>
            <stop offset="1" stop-color="#1F2342"/>
        </linearGradient>
        <radialGradient id="paint1_radial_0_825" cx="0" cy="0" r="1" gradientUnits="userSpaceOnUse" gradientTransform="translate(196.546 12.8648) rotate(170.329) scale(121.935 41.6093)">
            <stop stop-color="#2C335C"/>
            <stop offset="1" stop-color="#191D36"/>
        </radialGradient>
        <radialGradient id="paint2_radial_0_825" cx="0" cy="0" r="1" gradientUnits="userSpaceOnUse" gradientTransform="translate(216.849 5.45957) rotate(155.507) scale(23.9251 18.5994)">
            <stop stop-color="#2C335C"/>
            <stop offset="1" stop-color="#191D36"/>
        </radialGradient>
    </defs>
</svg>
