<svg width="389" height="509" viewBox="0 0 389 509" fill="none" xmlns="http://www.w3.org/2000/svg">
    <path fill-rule="evenodd" clip-rule="evenodd" d="M350.871 332.83L345.137 399.6L346.064 410.219C335.082 466.449 313.94 519.138 313.94 519.138C303.2 529.442 258.68 549.584 258.68 549.584L232.102 603.116C216.471 618.269 181.698 624.093 181.698 624.093L181.376 633.87C159.484 631.034 126.432 617.778 126.432 617.778L117.861 588.86C107.43 583.272 69.463 556.899 69.463 556.899L61.1471 522.811C61.1471 522.811 33.1143 497.088 31.3565 485.317C31.1444 483.971 30.6412 480.82 29.8957 476.28C24.2042 441.574 4.80251 326.375 4.80251 326.375C4.80251 326.375 0.408124 316.023 0.971813 306.797C1.5355 297.572 4.46305 269.036 4.46305 269.036C4.46305 269.036 137.051 234.754 159.726 232.985C182.401 231.215 274.682 232.482 274.682 232.482L276.925 166.051L309.049 129.624C315.619 137.133 319.959 146.977 322.893 156.026C323.093 156.675 323.299 157.323 323.462 157.966L323.493 158.032C325.029 163.255 326.258 168.564 327.172 173.931V173.961L327.257 174.446C327.863 178.24 328.081 180.616 328.081 180.616L326.262 147.668L338.894 127.581C343.331 102.809 342.61 54.0287 342.61 54.0287L352.101 46.7007L354.659 3.21188L370.158 0.0176315L379.443 56.6289L387.062 70.9272C387.062 70.9272 385.183 136.218 383.183 163.633C381.183 191.047 388.074 272.819 388.074 272.819C374.364 310.549 350.871 332.83 350.871 332.83Z" fill="url(#paint0_linear_0_819)"/>
    <path fill-rule="evenodd" clip-rule="evenodd" d="M350.877 332.831L345.143 399.601L346.07 410.22C335.087 466.449 313.946 519.139 313.946 519.139C303.206 529.443 258.686 549.584 258.686 549.584L232.108 603.116C216.476 618.269 181.703 624.094 181.703 624.094L181.382 633.871C159.489 631.034 126.438 617.778 126.438 617.778L117.867 588.861C107.436 583.272 69.4688 556.9 69.4688 556.9L61.1529 522.812C61.1529 522.812 33.1201 497.088 31.3623 485.318C31.1502 483.972 30.647 480.82 29.9015 476.28L48.982 487.506L57.5647 472.753L55.2493 433.586L67.1111 497.513L68.6808 539.789L77.6817 550.996L107.739 568.95L133.62 591.849L154.301 579.005L158.022 466.619L152.022 451.03L161.023 460.418L170.011 539.317L175.133 583.315L209.397 584.448L231.884 553.688L256.371 528.043L287.428 495.416L305.515 458.558L323.601 415.166L343.47 408.498L330.826 401.94L291.914 404.098L259.626 413.075C259.626 413.075 216.246 422.894 200.226 426.652C184.207 430.41 157.077 430.367 157.077 430.367L99.3868 417.354L95.8227 400.279L85.7492 373.265L84.1853 310.132L83.0518 272.092L114.158 249.666L182.243 244.374L186.395 263.067L185.407 378.69L202.917 420.954L230.878 412.056L262.026 376.902L268.087 309.404L269.996 251.696C279.658 240.307 285.537 241.489 285.537 241.489L285.077 255.363L290.023 353.19L297.902 326.521L296.32 272.146L309.236 270.401L332.008 264.661L344.737 254.175L328.614 244.477L312.085 260.527L305.721 239.998L303.49 212.892L298.09 175.059L314.746 167.682L322.904 156.081L323.007 155.924L323.474 158.021L323.504 158.087L327.177 173.931V173.962L327.238 174.192V174.446L330.675 237.483L347.331 248.726L347.676 280.632L366.969 267.934L369.539 256.018C369.539 256.018 363.066 231.3 364.836 210.85C366.605 190.399 374.721 158.724 374.721 158.724L375.74 127.86L375.303 82.5774L383.704 82.8562L377.412 77.692L377.77 66.885C377.77 66.885 373.036 63.115 370.897 58.0539C368.757 52.9928 368.442 36.5731 368.442 36.5731L371.072 22.9052L370.169 0L379.455 56.6113L387.074 70.9096C387.074 70.9096 385.195 136.2 383.195 163.615C381.195 191.03 388.086 272.801 388.086 272.801C374.37 310.55 350.877 332.831 350.877 332.831Z" fill="#0E1020"/>
    <defs>
        <linearGradient id="paint0_linear_0_819" x1="107.198" y1="536.686" x2="425.152" y2="213.441" gradientUnits="userSpaceOnUse">
            <stop offset="0.01" stop-color="#0E1020"/>
            <stop offset="1" stop-color="#1F2342"/>
        </linearGradient>
    </defs>
</svg>
