<svg width="1535" height="892" viewBox="0 0 1535 892" fill="none" xmlns="http://www.w3.org/2000/svg">
    <path d="M2377.79 1007.58C2134.53 914.136 1669.18 739.482 1400.67 665.648C1025.27 562.377 574.817 346.572 490.348 384.121C405.879 421.671 513.792 520.227 293.219 412.316C72.647 304.405 -673.388 168.308 -954.952 55.6892C-1008.14 34.4181 -1064.01 16.1473 -1119.66 0.54349L-702.01 418.197C-563.163 434.149 -444.662 450.222 -387.125 463.952C-190.06 510.845 255.712 665.712 354.26 698.561C452.809 731.411 452.792 665.682 574.774 675.098C696.756 684.513 1283.37 933.11 1574.33 1008.17C1761.08 1056.4 2079.26 1150.92 2283.21 1212.52L2432.97 1062.76L2377.79 1007.58Z" fill="url(#paint0_linear_0_736)"/>
    <defs>
        <linearGradient id="paint0_linear_0_736" x1="1083.58" y1="317.302" x2="876.072" y2="1064.21" gradientUnits="userSpaceOnUse">
            <stop stop-color="#0F1122" stop-opacity="0"/>
            <stop offset="1" stop-color="#161A31"/>
        </linearGradient>
    </defs>
</svg>
