<svg width="1535" height="940" viewBox="0 0 1535 940" fill="none" xmlns="http://www.w3.org/2000/svg">
    <path d="M515.752 80.1193C508.361 82.3405 507.902 83.0681 508.667 90.7273C506.446 83.3362 505.719 82.8766 498.059 83.6426C505.451 81.4214 505.91 80.6938 505.144 73.0346C507.404 80.4257 508.093 80.8853 515.752 80.1193Z" fill="white"/>
    <path d="M406.837 258.004C406.837 258.961 406.071 259.727 405.114 259.727C404.157 259.727 403.391 258.961 403.391 258.004C403.391 257.046 404.157 256.28 405.114 256.28C406.071 256.28 406.837 257.046 406.837 258.004Z" fill="#212444"/>
    <path d="M736.183 14.4801C737.282 14.4801 738.174 13.5886 738.174 12.4888C738.174 11.3889 737.282 10.4973 736.183 10.4973C735.083 10.4973 734.191 11.3889 734.191 12.4888C734.191 13.5886 735.083 14.4801 736.183 14.4801Z" fill="#212444"/>
    <path d="M627.195 64.2648C628.294 64.2648 629.186 63.3732 629.186 62.2734C629.186 61.1736 628.294 60.282 627.195 60.282C626.095 60.282 625.203 61.1736 625.203 62.2734C625.203 63.3732 626.095 64.2648 627.195 64.2648Z" fill="#212444"/>
    <path d="M119.889 218.597C119.889 219.708 119.008 220.588 117.898 220.588C116.787 220.588 115.906 219.708 115.906 218.597C115.906 217.486 116.787 216.606 117.898 216.606C119.008 216.606 119.889 217.486 119.889 218.597Z" fill="#212444"/>
    <path d="M35.8665 117.764C35.8665 118.875 34.9856 119.755 33.8751 119.755C32.7645 119.755 31.8838 118.875 31.8838 117.764C31.8838 116.653 32.7645 115.773 33.8751 115.773C34.9856 115.773 35.8665 116.653 35.8665 117.764Z" fill="#212444"/>
    <path d="M58.7686 284.275C59.8684 284.275 60.7601 283.383 60.7601 282.283C60.7601 281.184 59.8684 280.292 58.7686 280.292C57.6688 280.292 56.7773 281.184 56.7773 282.283C56.7773 283.383 57.6688 284.275 58.7686 284.275Z" fill="#212444"/>
    <path d="M624.206 208.87C624.206 209.981 623.325 210.861 622.214 210.861C621.104 210.861 620.223 209.981 620.223 208.87C620.223 207.76 621.104 206.879 622.214 206.879C623.325 206.879 624.206 207.76 624.206 208.87Z" fill="#212444"/>
    <path d="M718.07 282.283C720.439 282.283 722.36 280.363 722.36 277.994C722.36 275.625 720.439 273.705 718.07 273.705C715.702 273.705 713.781 275.625 713.781 277.994C713.781 280.363 715.702 282.283 718.07 282.283Z" fill="#212444"/>
    <path d="M225.507 222.886C227.876 222.886 229.797 220.966 229.797 218.597C229.797 216.228 227.876 214.308 225.507 214.308C223.138 214.308 221.218 216.228 221.218 218.597C221.218 220.966 223.138 222.886 225.507 222.886Z" fill="#212444"/>
    <path d="M441.752 134.398C442.132 132.06 440.544 129.857 438.206 129.477C435.867 129.098 433.664 130.686 433.285 133.024C432.905 135.362 434.493 137.565 436.831 137.945C439.17 138.324 441.373 136.736 441.752 134.398Z" fill="#212444"/>
    <path d="M681.035 148.746C684.588 148.746 687.469 145.865 687.469 142.312C687.469 138.759 684.588 135.878 681.035 135.878C677.482 135.878 674.602 138.759 674.602 142.312C674.602 145.865 677.482 148.746 681.035 148.746Z" fill="#212444"/>
    <path d="M226.695 70.6599C226.695 71.3109 226.159 71.8471 225.508 71.8471C224.857 71.8471 224.321 71.3109 224.321 70.6599C224.321 70.0089 224.857 69.4727 225.508 69.4727C226.159 69.4727 226.695 69.9706 226.695 70.6599Z" fill="white"/>
    <path d="M364.753 60.2819C364.753 60.9329 364.217 61.4691 363.566 61.4691C362.915 61.4691 362.379 60.9329 362.379 60.2819C362.379 59.6309 362.915 59.0947 363.566 59.0947C364.217 59.0947 364.753 59.6309 364.753 60.2819Z" fill="#212444"/>
    <path d="M96.6049 15.246C96.6049 15.897 96.0687 16.4332 95.4177 16.4332C94.7666 16.4332 94.2305 15.897 94.2305 15.246C94.2305 14.595 94.7666 14.0588 95.4177 14.0588C96.0687 14.0588 96.6049 14.5567 96.6049 15.246Z" fill="#212444"/>
    <path d="M930.356 135.419C930.356 136.376 929.59 137.142 928.633 137.142C927.676 137.142 926.91 136.376 926.91 135.419C926.91 134.461 927.676 133.695 928.633 133.695C929.59 133.695 930.356 134.499 930.356 135.419Z" fill="#212444"/>
    <path d="M892.481 189.071C892.481 190.028 891.715 190.794 890.758 190.794C889.8 190.794 889.035 190.028 889.035 189.071C889.035 188.114 889.8 187.348 890.758 187.348C891.715 187.348 892.481 188.114 892.481 189.071Z" fill="#212444"/>
    <path d="M742.746 220.014C743.698 220.014 744.47 219.243 744.47 218.291C744.47 217.339 743.698 216.568 742.746 216.568C741.795 216.568 741.023 217.339 741.023 218.291C741.023 219.243 741.795 220.014 742.746 220.014Z" fill="#212444"/>
    <path d="M1449.72 258.004C1449.72 258.961 1448.96 259.727 1448 259.727C1447.04 259.727 1446.28 258.961 1446.28 258.004C1446.28 257.046 1447.04 256.28 1448 256.28C1448.96 256.28 1449.72 257.046 1449.72 258.004Z" fill="#212444"/>
    <path d="M742.552 0.655444C742.552 1.61284 741.786 2.37876 740.828 2.37876C739.871 2.37876 739.105 1.61284 739.105 0.655444C739.105 -0.301953 739.871 -1.06787 740.828 -1.06787C741.786 -1.06787 742.552 -0.301953 742.552 0.655444Z" fill="#212444"/>
    <path d="M750.173 142.159C752.035 142.159 753.543 140.65 753.543 138.789C753.543 136.927 752.035 135.419 750.173 135.419C748.312 135.419 746.803 136.927 746.803 138.789C746.803 140.65 748.312 142.159 750.173 142.159Z" fill="#212444"/>
    <path d="M1162.78 218.597C1162.78 219.708 1161.89 220.588 1160.78 220.588C1159.67 220.588 1158.79 219.708 1158.79 218.597C1158.79 217.486 1159.67 216.606 1160.78 216.606C1161.89 216.606 1162.78 217.486 1162.78 218.597Z" fill="#212444"/>
    <path d="M1078.75 117.764C1078.75 118.875 1077.87 119.755 1076.76 119.755C1075.65 119.755 1074.77 118.875 1074.77 117.764C1074.77 116.653 1075.65 115.773 1076.76 115.773C1077.87 115.773 1078.75 116.653 1078.75 117.764Z" fill="#212444"/>
    <path d="M1101.65 284.275C1102.75 284.275 1103.65 283.383 1103.65 282.283C1103.65 281.184 1102.75 280.292 1101.65 280.292C1100.55 280.292 1099.66 281.184 1099.66 282.283C1099.66 283.383 1100.55 284.275 1101.65 284.275Z" fill="#212444"/>
    <path d="M971.524 164.6C973.893 164.6 975.813 162.68 975.813 160.311C975.813 157.942 973.893 156.022 971.524 156.022C969.155 156.022 967.235 157.942 967.235 160.311C967.235 162.68 969.155 164.6 971.524 164.6Z" fill="#212444"/>
    <path d="M1268.39 222.886C1270.76 222.886 1272.68 220.966 1272.68 218.597C1272.68 216.228 1270.76 214.308 1268.39 214.308C1266.02 214.308 1264.1 216.228 1264.1 218.597C1264.1 220.966 1266.02 222.886 1268.39 222.886Z" fill="#212444"/>
    <path d="M1484.64 134.398C1485.02 132.06 1483.43 129.857 1481.09 129.477C1478.75 129.098 1476.55 130.686 1476.17 133.024C1475.79 135.362 1477.38 137.565 1479.72 137.945C1482.06 138.324 1484.26 136.736 1484.64 134.398Z" fill="#212444"/>
    <path d="M771.006 61.3161C773.375 61.3161 775.296 59.3957 775.296 57.0269C775.296 54.6581 773.375 52.7378 771.006 52.7378C768.638 52.7378 766.717 54.6581 766.717 57.0269C766.717 59.3957 768.638 61.3161 771.006 61.3161Z" fill="#212444"/>
    <path d="M853.573 258.003C858.035 258.003 861.653 254.386 861.653 249.923C861.653 245.46 858.035 241.843 853.573 241.843C849.11 241.843 845.492 245.46 845.492 249.923C845.492 254.386 849.11 258.003 853.573 258.003Z" fill="#212444"/>
    <path d="M909.185 97.4965C910.947 96.6218 911.666 94.4845 910.792 92.7227C909.917 90.9609 907.78 90.2417 906.018 91.1164C904.256 91.9911 903.537 94.1284 904.411 95.8903C905.286 97.6521 907.423 98.3712 909.185 97.4965Z" fill="#212444"/>
    <path d="M1269.58 70.6599C1269.58 71.3109 1269.04 71.8471 1268.39 71.8471C1267.74 71.8471 1267.21 71.3109 1267.21 70.6599C1267.21 70.0089 1267.74 69.4727 1268.39 69.4727C1269.04 69.4727 1269.58 69.9706 1269.58 70.6599Z" fill="white"/>
    <path d="M1407.64 60.2819C1407.64 60.9329 1407.1 61.4691 1406.45 61.4691C1405.8 61.4691 1405.27 60.9329 1405.27 60.2819C1405.27 59.6309 1405.8 59.0947 1406.45 59.0947C1407.1 59.0947 1407.64 59.6309 1407.64 60.2819Z" fill="#212444"/>
    <path d="M1139.49 15.246C1139.49 15.897 1138.95 16.4332 1138.3 16.4332C1137.65 16.4332 1137.12 15.897 1137.12 15.246C1137.12 14.595 1137.65 14.0588 1138.3 14.0588C1138.95 14.0588 1139.49 14.5567 1139.49 15.246Z" fill="#212444"/>
    <path d="M515.752 822.627C508.361 824.849 507.901 825.576 508.667 833.235C506.446 825.844 505.719 825.385 498.059 826.151C505.45 823.929 505.91 823.202 505.144 815.543C507.404 822.934 508.093 823.393 515.752 822.627Z" fill="white"/>
    <path d="M483.737 455.753C479.448 454.029 478.95 454.183 476.422 458.051C478.146 453.761 477.992 453.264 474.125 450.736C478.414 452.459 478.912 452.306 481.439 448.438C479.716 452.727 479.869 453.225 483.737 455.753Z" fill="white"/>
    <path d="M206.626 632.373C202.145 633.561 201.839 633.944 202.145 638.577C200.958 634.097 200.575 633.79 195.941 634.097C200.422 632.91 200.728 632.527 200.422 627.893C201.609 632.373 202.03 632.641 206.626 632.373Z" fill="#212444"/>
    <path d="M410.13 312.335C405.458 308.467 404.807 308.428 400.059 312.296C403.927 307.624 403.965 306.973 400.097 302.263C404.769 306.131 405.42 306.169 410.169 302.301C406.301 306.935 406.263 307.624 410.13 312.335Z" fill="#212444"/>
    <path d="M412.238 307.318C406.187 307.854 405.728 308.352 405.077 314.403C404.541 308.352 404.043 307.892 397.992 307.241C404.043 306.705 404.502 306.207 405.153 300.157C405.728 306.207 406.187 306.705 412.238 307.318Z" fill="#212444"/>
    <path d="M698.921 544.829C691.301 545.556 690.726 546.169 689.96 553.79C689.233 546.169 688.62 545.595 680.999 544.829C688.62 544.101 689.194 543.488 689.96 535.868C690.688 543.488 691.301 544.101 698.921 544.829Z" fill="#212444"/>
    <path d="M696.277 538.51C691.414 544.408 691.414 545.25 696.277 551.148C690.38 546.284 689.537 546.284 683.64 551.148C688.503 545.25 688.503 544.408 683.64 538.51C689.537 543.374 690.38 543.374 696.277 538.51Z" fill="white"/>
    <path d="M50.4208 341.937C52.282 341.937 53.7908 340.429 53.7908 338.567C53.7908 336.706 52.282 335.197 50.4208 335.197C48.5596 335.197 47.0507 336.706 47.0507 338.567C47.0507 340.429 48.5596 341.937 50.4208 341.937Z" fill="#212444"/>
    <path d="M722.092 615.6C722.092 616.71 721.211 617.591 720.101 617.591C718.99 617.591 718.109 616.71 718.109 615.6C718.109 614.489 718.99 613.608 720.101 613.608C721.211 613.608 722.092 614.489 722.092 615.6Z" fill="#212444"/>
    <path d="M626.62 465.901C627.72 465.901 628.612 465.01 628.612 463.91C628.612 462.81 627.72 461.918 626.62 461.918C625.52 461.918 624.629 462.81 624.629 463.91C624.629 465.01 625.52 465.901 626.62 465.901Z" fill="#212444"/>
    <path d="M734.191 349.443C735.29 349.443 736.182 348.552 736.182 347.452C736.182 346.352 735.29 345.46 734.191 345.46C733.091 345.46 732.199 346.352 732.199 347.452C732.199 348.552 733.091 349.443 734.191 349.443Z" fill="#212444"/>
    <path d="M631.174 604.915C631.174 606.026 630.293 606.906 629.183 606.906C628.072 606.906 627.191 606.026 627.191 604.915C627.191 603.805 628.072 602.924 629.183 602.924C630.293 602.924 631.174 603.805 631.174 604.915Z" fill="#212444"/>
    <path d="M428.706 595.494C428.706 596.605 427.825 597.486 426.714 597.486C425.604 597.486 424.723 596.605 424.723 595.494C424.723 594.384 425.604 593.503 426.714 593.503C427.825 593.503 428.706 594.384 428.706 595.494Z" fill="#212444"/>
    <path d="M335.913 374.795C337.013 374.795 337.904 373.903 337.904 372.804C337.904 371.704 337.013 370.812 335.913 370.812C334.813 370.812 333.922 371.704 333.922 372.804C333.922 373.903 334.813 374.795 335.913 374.795Z" fill="#212444"/>
    <path d="M665.795 667.337C666.895 667.337 667.787 666.446 667.787 665.346C667.787 664.246 666.895 663.355 665.795 663.355C664.695 663.355 663.804 664.246 663.804 665.346C663.804 666.446 664.695 667.337 665.795 667.337Z" fill="#212444"/>
    <path d="M736.183 756.988C737.282 756.988 738.174 756.097 738.174 754.997C738.174 753.897 737.282 753.005 736.183 753.005C735.083 753.005 734.191 753.897 734.191 754.997C734.191 756.097 735.083 756.988 736.183 756.988Z" fill="#212444"/>
    <path d="M627.194 806.773C628.294 806.773 629.186 805.881 629.186 804.781C629.186 803.682 628.294 802.79 627.194 802.79C626.095 802.79 625.203 803.682 625.203 804.781C625.203 805.881 626.095 806.773 627.194 806.773Z" fill="#212444"/>
    <path d="M35.8663 860.272C35.8663 861.383 34.9854 862.263 33.8748 862.263C32.7642 862.263 31.8835 861.383 31.8835 860.272C31.8835 859.162 32.7642 858.281 33.8748 858.281C34.9854 858.281 35.8663 859.162 35.8663 860.272Z" fill="#212444"/>
    <path d="M681.038 635.207C682.138 635.207 683.029 634.316 683.029 633.216C683.029 632.116 682.138 631.224 681.038 631.224C679.938 631.224 679.047 632.116 679.047 633.216C679.047 634.316 679.938 635.207 681.038 635.207Z" fill="#212444"/>
    <path d="M234.24 719.994C234.24 721.105 233.36 721.986 232.249 721.986C231.138 721.986 230.258 721.105 230.258 719.994C230.258 718.884 231.138 718.003 232.249 718.003C233.36 718.003 234.24 718.884 234.24 719.994Z" fill="#212444"/>
    <path d="M598.702 337.189C599.802 337.189 600.694 336.297 600.694 335.197C600.694 334.097 599.802 333.206 598.702 333.206C597.602 333.206 596.711 334.097 596.711 335.197C596.711 336.297 597.602 337.189 598.702 337.189Z" fill="#212444"/>
    <path d="M89.4013 527.481C90.5011 527.481 91.3928 526.589 91.3928 525.489C91.3928 524.39 90.5011 523.498 89.4013 523.498C88.3015 523.498 87.41 524.39 87.41 525.489C87.41 526.589 88.3015 527.481 89.4013 527.481Z" fill="#212444"/>
    <path d="M98.3284 483.134C98.3284 483.938 97.6772 484.589 96.873 484.589C96.0688 484.589 95.4178 483.938 95.4178 483.134C95.4178 482.33 96.0688 481.679 96.873 481.679C97.6772 481.679 98.3284 482.33 98.3284 483.134Z" fill="white"/>
    <path d="M168.445 286.063C168.445 286.868 167.794 287.519 166.99 287.519C166.186 287.519 165.535 286.868 165.535 286.063C165.535 285.259 166.186 284.608 166.99 284.608C167.794 284.608 168.445 285.259 168.445 286.063Z" fill="#212444"/>
    <path d="M56.7765 463.91C57.8763 463.91 58.7678 463.018 58.7678 461.918C58.7678 460.818 57.8763 459.927 56.7765 459.927C55.6767 459.927 54.785 460.818 54.785 461.918C54.785 463.018 55.6767 463.91 56.7765 463.91Z" fill="#212444"/>
    <path d="M437.475 392.909C438.575 392.909 439.467 392.018 439.467 390.918C439.467 389.818 438.575 388.926 437.475 388.926C436.375 388.926 435.484 389.818 435.484 390.918C435.484 392.018 436.375 392.909 437.475 392.909Z" fill="#212444"/>
    <path d="M295.702 347.452C296.802 347.452 297.694 346.56 297.694 345.46C297.694 344.36 296.802 343.469 295.702 343.469C294.602 343.469 293.711 344.36 293.711 345.46C293.711 346.56 294.602 347.452 295.702 347.452Z" fill="#212444"/>
    <path d="M228.186 405.585C229.286 405.585 230.178 404.693 230.178 403.594C230.178 402.494 229.286 401.602 228.186 401.602C227.087 401.602 226.195 402.494 226.195 403.594C226.195 404.693 227.087 405.585 228.186 405.585Z" fill="#212444"/>
    <path d="M536.468 312.641C537.568 312.641 538.459 311.749 538.459 310.649C538.459 309.55 537.568 308.658 536.468 308.658C535.368 308.658 534.476 309.55 534.476 310.649C534.476 311.749 535.368 312.641 536.468 312.641Z" fill="#212444"/>
    <path d="M514.258 619.889C516.627 619.889 518.548 617.969 518.548 615.6C518.548 613.231 516.627 611.311 514.258 611.311C511.89 611.311 509.969 613.231 509.969 615.6C509.969 617.969 511.89 619.889 514.258 619.889Z" fill="#212444"/>
    <path d="M147.883 540.195C150.252 540.195 152.172 538.275 152.172 535.906C152.172 533.537 150.252 531.617 147.883 531.617C145.514 531.617 143.594 533.537 143.594 535.906C143.594 538.275 145.514 540.195 147.883 540.195Z" fill="#212444"/>
    <path d="M441.752 876.906C442.132 874.568 440.544 872.365 438.205 871.985C435.867 871.606 433.664 873.194 433.285 875.532C432.905 877.87 434.493 880.073 436.831 880.453C439.17 880.832 441.373 879.244 441.752 876.906Z" fill="#212444"/>
    <path d="M681.035 891.254C684.588 891.254 687.469 888.373 687.469 884.82C687.469 881.267 684.588 878.386 681.035 878.386C677.482 878.386 674.601 881.267 674.601 884.82C674.601 888.373 677.482 891.254 681.035 891.254Z" fill="#212444"/>
    <path d="M492.664 729.015C494.728 726.951 494.728 723.605 492.664 721.541C490.601 719.477 487.254 719.477 485.191 721.541C483.127 723.605 483.127 726.951 485.191 729.015C487.254 731.079 490.601 731.079 492.664 729.015Z" fill="#212444"/>
    <path d="M693.904 302.224C698.367 302.224 701.985 298.607 701.985 294.144C701.985 289.681 698.367 286.064 693.904 286.064C689.442 286.064 685.824 289.681 685.824 294.144C685.824 298.607 689.442 302.224 693.904 302.224Z" fill="#212444"/>
    <path d="M226.695 813.168C226.695 813.819 226.158 814.355 225.507 814.355C224.856 814.355 224.32 813.819 224.32 813.168C224.32 812.517 224.856 811.981 225.507 811.981C226.158 811.981 226.695 812.479 226.695 813.168Z" fill="white"/>
    <path d="M326.57 687.673C326.57 688.324 326.034 688.86 325.383 688.86C324.732 688.86 324.196 688.324 324.196 687.673C324.196 687.022 324.732 686.485 325.383 686.485C326.034 686.485 326.57 687.022 326.57 687.673Z" fill="#212444"/>
    <path d="M364.753 802.79C364.753 803.441 364.217 803.977 363.566 803.977C362.915 803.977 362.379 803.441 362.379 802.79C362.379 802.139 362.915 801.603 363.566 801.603C364.217 801.603 364.753 802.139 364.753 802.79Z" fill="#212444"/>
    <path d="M96.6048 757.754C96.6048 758.405 96.0686 758.941 95.4176 758.941C94.7665 758.941 94.2303 758.405 94.2303 757.754C94.2303 757.103 94.7665 756.567 95.4176 756.567C96.0686 756.567 96.6048 757.065 96.6048 757.754Z" fill="#212444"/>
    <path d="M305.125 514.077C305.125 514.728 304.589 515.265 303.938 515.265C303.287 515.265 302.75 514.728 302.75 514.077C302.75 513.426 303.287 512.89 303.938 512.89C304.589 512.89 305.125 513.426 305.125 514.077Z" fill="#212444"/>
    <path d="M868.853 714.671C861.462 716.892 861.002 717.62 861.768 725.279C859.547 717.888 858.819 717.428 851.16 718.194C858.551 715.973 859.011 715.246 858.245 707.586C860.466 714.978 861.193 715.437 868.853 714.671Z" fill="white"/>
    <path d="M977.307 345.46C971.793 340.099 970.95 340.022 964.593 344.388C969.955 338.873 970.031 338.031 965.665 331.674C971.18 337.035 972.023 337.112 978.38 332.746C973.018 338.261 972.942 339.103 977.307 345.46Z" fill="#212444"/>
    <path d="M1526.62 455.753C1522.33 454.029 1521.84 454.183 1519.31 458.051C1521.03 453.761 1520.88 453.263 1517.01 450.736C1521.3 452.459 1521.8 452.306 1524.33 448.438C1522.6 452.727 1522.76 453.225 1526.62 455.753Z" fill="white"/>
    <path d="M1249.51 632.373C1245.03 633.561 1244.72 633.944 1245.03 638.577C1243.84 634.097 1243.46 633.79 1238.83 634.097C1243.31 632.91 1243.61 632.527 1243.31 627.893C1244.5 632.373 1244.92 632.641 1249.51 632.373Z" fill="#212444"/>
    <path d="M1453.02 312.335C1448.34 308.467 1447.69 308.428 1442.95 312.296C1446.81 307.624 1446.85 306.973 1442.98 302.263C1447.66 306.131 1448.31 306.169 1453.06 302.301C1449.19 306.935 1449.15 307.624 1453.02 312.335Z" fill="#212444"/>
    <path d="M1455.12 307.318C1449.07 307.854 1448.61 308.352 1447.96 314.403C1447.43 308.352 1446.93 307.892 1440.88 307.241C1446.93 306.705 1447.39 306.207 1448.04 300.156C1448.61 306.207 1449.07 306.705 1455.12 307.318Z" fill="#212444"/>
    <path d="M1024.14 675.763C1026 675.763 1027.51 674.254 1027.51 672.393C1027.51 670.531 1026 669.023 1024.14 669.023C1022.28 669.023 1020.77 670.531 1020.77 672.393C1020.77 674.254 1022.28 675.763 1024.14 675.763Z" fill="#212444"/>
    <path d="M930.356 877.927C930.356 878.884 929.59 879.65 928.633 879.65C927.675 879.65 926.91 878.884 926.91 877.927C926.91 876.969 927.675 876.203 928.633 876.203C929.59 876.203 930.356 877.008 930.356 877.927Z" fill="#212444"/>
    <path d="M892.481 931.579C892.481 932.537 891.715 933.302 890.758 933.302C889.8 933.302 889.034 932.537 889.034 931.579C889.034 930.622 889.8 929.856 890.758 929.856C891.715 929.856 892.481 930.622 892.481 931.579Z" fill="#212444"/>
    <path d="M742.551 743.164C742.551 744.121 741.786 744.887 740.828 744.887C739.871 744.887 739.105 744.121 739.105 743.164C739.105 742.206 739.871 741.44 740.828 741.44C741.786 741.44 742.551 742.206 742.551 743.164Z" fill="#212444"/>
    <path d="M750.173 884.667C752.035 884.667 753.543 883.158 753.543 881.297C753.543 879.435 752.035 877.927 750.173 877.927C748.312 877.927 746.803 879.435 746.803 881.297C746.803 883.158 748.312 884.667 750.173 884.667Z" fill="#212444"/>
    <path d="M845.021 529.497C845.32 527.66 844.073 525.928 842.236 525.629C840.399 525.331 838.667 526.577 838.368 528.414C838.069 530.251 839.316 531.983 841.153 532.282C842.99 532.581 844.722 531.334 845.021 529.497Z" fill="#212444"/>
    <path d="M827.53 314.02C829.391 314.02 830.9 312.511 830.9 310.65C830.9 308.788 829.391 307.28 827.53 307.28C825.668 307.28 824.16 308.788 824.16 310.65C824.16 312.511 825.668 314.02 827.53 314.02Z" fill="#212444"/>
    <path d="M1093.3 341.937C1095.16 341.937 1096.67 340.429 1096.67 338.567C1096.67 336.706 1095.16 335.197 1093.3 335.197C1091.44 335.197 1089.93 336.706 1089.93 338.567C1089.93 340.429 1091.44 341.937 1093.3 341.937Z" fill="#212444"/>
    <path d="M808.768 617.591C809.868 617.591 810.76 616.699 810.76 615.6C810.76 614.5 809.868 613.608 808.768 613.608C807.668 613.608 806.777 614.5 806.777 615.6C806.777 616.699 807.668 617.591 808.768 617.591Z" fill="white"/>
    <path d="M1471.59 595.494C1471.59 596.605 1470.71 597.486 1469.6 597.486C1468.49 597.486 1467.61 596.605 1467.61 595.494C1467.61 594.384 1468.49 593.503 1469.6 593.503C1470.71 593.503 1471.59 594.384 1471.59 595.494Z" fill="#212444"/>
    <path d="M1378.8 374.795C1379.9 374.795 1380.79 373.903 1380.79 372.804C1380.79 371.704 1379.9 370.812 1378.8 370.812C1377.7 370.812 1376.81 371.704 1376.81 372.804C1376.81 373.903 1377.7 374.795 1378.8 374.795Z" fill="#212444"/>
    <path d="M1078.75 860.272C1078.75 861.383 1077.87 862.263 1076.76 862.263C1075.65 862.263 1074.77 861.383 1074.77 860.272C1074.77 859.162 1075.65 858.281 1076.76 858.281C1077.87 858.281 1078.75 859.162 1078.75 860.272Z" fill="#212444"/>
    <path d="M1277.13 719.994C1277.13 721.105 1276.25 721.986 1275.14 721.986C1274.02 721.986 1273.14 721.105 1273.14 719.994C1273.14 718.884 1274.02 718.003 1275.14 718.003C1276.25 718.003 1277.13 718.884 1277.13 719.994Z" fill="#212444"/>
    <path d="M896.464 584.848C897.564 584.848 898.455 583.957 898.455 582.857C898.455 581.757 897.564 580.865 896.464 580.865C895.364 580.865 894.473 581.757 894.473 582.857C894.473 583.957 895.364 584.848 896.464 584.848Z" fill="#212444"/>
    <path d="M1132.29 527.481C1133.39 527.481 1134.28 526.589 1134.28 525.489C1134.28 524.39 1133.39 523.498 1132.29 523.498C1131.19 523.498 1130.3 524.39 1130.3 525.489C1130.3 526.589 1131.19 527.481 1132.29 527.481Z" fill="#212444"/>
    <path d="M1141.21 483.134C1141.21 483.938 1140.56 484.589 1139.76 484.589C1138.96 484.589 1138.3 483.938 1138.3 483.134C1138.3 482.33 1138.96 481.679 1139.76 481.679C1140.56 481.679 1141.21 482.33 1141.21 483.134Z" fill="white"/>
    <path d="M1211.33 286.063C1211.33 286.868 1210.68 287.519 1209.88 287.519C1209.07 287.519 1208.42 286.868 1208.42 286.063C1208.42 285.259 1209.07 284.608 1209.88 284.608C1210.68 284.608 1211.33 285.259 1211.33 286.063Z" fill="#212444"/>
    <path d="M1099.66 463.91C1100.76 463.91 1101.65 463.018 1101.65 461.918C1101.65 460.818 1100.76 459.927 1099.66 459.927C1098.56 459.927 1097.67 460.818 1097.67 461.918C1097.67 463.018 1098.56 463.91 1099.66 463.91Z" fill="#212444"/>
    <path d="M1480.36 392.909C1481.46 392.909 1482.35 392.017 1482.35 390.918C1482.35 389.818 1481.46 388.926 1480.36 388.926C1479.26 388.926 1478.37 389.818 1478.37 390.918C1478.37 392.017 1479.26 392.909 1480.36 392.909Z" fill="#212444"/>
    <path d="M1338.59 347.451C1339.69 347.451 1340.58 346.56 1340.58 345.46C1340.58 344.36 1339.69 343.469 1338.59 343.469C1337.49 343.469 1336.6 344.36 1336.6 345.46C1336.6 346.56 1337.49 347.451 1338.59 347.451Z" fill="#212444"/>
    <path d="M1271.07 405.585C1272.17 405.585 1273.06 404.693 1273.06 403.594C1273.06 402.494 1272.17 401.602 1271.07 401.602C1269.97 401.602 1269.08 402.494 1269.08 403.594C1269.08 404.693 1269.97 405.585 1271.07 405.585Z" fill="#212444"/>
    <path d="M988.26 394.939C988.26 396.049 987.379 396.93 986.268 396.93C985.158 396.93 984.277 396.049 984.277 394.939C984.277 393.828 985.158 392.947 986.268 392.947C987.379 392.947 988.26 393.828 988.26 394.939Z" fill="#212444"/>
    <path d="M827.53 375.944C828.63 375.944 829.521 375.052 829.521 373.953C829.521 372.853 828.63 371.961 827.53 371.961C826.43 371.961 825.538 372.853 825.538 373.953C825.538 375.052 826.43 375.944 827.53 375.944Z" fill="#212444"/>
    <path d="M827.53 568.189C828.63 568.189 829.521 567.298 829.521 566.198C829.521 565.098 828.63 564.207 827.53 564.207C826.43 564.207 825.538 565.098 825.538 566.198C825.538 567.298 826.43 568.189 827.53 568.189Z" fill="#212444"/>
    <path d="M844.956 608.783C847.325 608.783 849.245 606.863 849.245 604.494C849.245 602.125 847.325 600.205 844.956 600.205C842.587 600.205 840.667 602.125 840.667 604.494C840.667 606.863 842.587 608.783 844.956 608.783Z" fill="#212444"/>
    <path d="M1190.77 540.195C1193.14 540.195 1195.06 538.275 1195.06 535.906C1195.06 533.537 1193.14 531.617 1190.77 531.617C1188.4 531.617 1186.48 533.537 1186.48 535.906C1186.48 538.275 1188.4 540.195 1190.77 540.195Z" fill="#212444"/>
    <path d="M753.542 378.242C755.911 378.242 757.832 376.322 757.832 373.953C757.832 371.584 755.911 369.664 753.542 369.664C751.174 369.664 749.253 371.584 749.253 373.953C749.253 376.322 751.174 378.242 753.542 378.242Z" fill="#212444"/>
    <path d="M971.524 907.108C973.893 907.108 975.813 905.188 975.813 902.819C975.813 900.45 973.893 898.53 971.524 898.53C969.155 898.53 967.235 900.45 967.235 902.819C967.235 905.188 969.155 907.108 971.524 907.108Z" fill="#212444"/>
    <path d="M1484.64 876.906C1485.02 874.568 1483.43 872.365 1481.09 871.985C1478.75 871.606 1476.55 873.194 1476.17 875.532C1475.79 877.87 1477.38 880.073 1479.72 880.453C1482.06 880.832 1484.26 879.244 1484.64 876.906Z" fill="#212444"/>
    <path d="M771.006 803.824C773.375 803.824 775.295 801.904 775.295 799.535C775.295 797.166 773.375 795.246 771.006 795.246C768.638 795.246 766.717 797.166 766.717 799.535C766.717 801.904 768.638 803.824 771.006 803.824Z" fill="#212444"/>
    <path d="M1535.55 729.015C1537.61 726.951 1537.61 723.605 1535.55 721.541C1533.49 719.477 1530.14 719.477 1528.08 721.541C1526.01 723.605 1526.01 726.951 1528.08 729.015C1530.14 731.079 1533.49 731.079 1535.55 729.015Z" fill="#212444"/>
    <path d="M909.185 840.005C910.947 839.13 911.666 836.993 910.791 835.231C909.917 833.469 907.779 832.75 906.018 833.624C904.256 834.499 903.537 836.637 904.411 838.398C905.286 840.16 907.423 840.879 909.185 840.005Z" fill="#212444"/>
    <path d="M1269.58 813.168C1269.58 813.819 1269.04 814.355 1268.39 814.355C1267.74 814.355 1267.21 813.819 1267.21 813.168C1267.21 812.517 1267.74 811.981 1268.39 811.981C1269.04 811.981 1269.58 812.479 1269.58 813.168Z" fill="white"/>
    <path d="M1369.46 687.673C1369.46 688.324 1368.92 688.86 1368.27 688.86C1367.62 688.86 1367.08 688.324 1367.08 687.673C1367.08 687.022 1367.62 686.485 1368.27 686.485C1368.92 686.485 1369.46 687.022 1369.46 687.673Z" fill="#212444"/>
    <path d="M1407.64 802.79C1407.64 803.441 1407.1 803.977 1406.45 803.977C1405.8 803.977 1405.27 803.441 1405.27 802.79C1405.27 802.139 1405.8 801.603 1406.45 801.603C1407.1 801.603 1407.64 802.139 1407.64 802.79Z" fill="#212444"/>
    <path d="M1139.49 757.754C1139.49 758.405 1138.95 758.941 1138.3 758.941C1137.65 758.941 1137.12 758.405 1137.12 757.754C1137.12 757.103 1137.65 756.567 1138.3 756.567C1138.95 756.567 1139.49 757.065 1139.49 757.754Z" fill="#212444"/>
    <path d="M1348.01 514.077C1348.01 514.728 1347.47 515.265 1346.82 515.265C1346.17 515.265 1345.64 514.728 1345.64 514.077C1345.64 513.426 1346.17 512.89 1346.82 512.89C1347.47 512.89 1348.01 513.426 1348.01 514.077Z" fill="#212444"/>
</svg>
